<?xml version="1.0" encoding="utf-8"?>
<!-- Generator: Adobe Illustrator 23.0.0, SVG Export Plug-In . SVG Version: 6.00 Build 0)  -->
<svg version="1.1" id="Layer_1" xmlns="http://www.w3.org/2000/svg" xmlns:xlink="http://www.w3.org/1999/xlink" x="0px" y="0px"
	 viewBox="0 0 217 53" style="enable-background:new 0 0 217 53;" xml:space="preserve">
<style type="text/css">
	.st0{fill:url(#SVGID_1_);}
	.st1{fill:#FFFFFF;}
</style>
<title>Logo</title>
<desc>Created with Sketch.</desc>
<g>
	
		<linearGradient id="SVGID_1_" gradientUnits="userSpaceOnUse" x1="4.5" y1="814.5" x2="53.7" y2="814.5" gradientTransform="matrix(1 0 0 1 0 -788)">
		<stop  offset="0" style="stop-color:#80D8FF"/>
		<stop  offset="1" style="stop-color:#EA80FC"/>
	</linearGradient>
	<path class="st0" d="M41.8,28.9c0-1.3,1.1-2.4,2.4-2.4c1.3,0,2.4,1.1,2.4,2.4s-1.1,2.4-2.4,2.4C42.9,31.3,41.8,30.3,41.8,28.9z
		 M44.2,41.7c1.3,0,2.4-1.1,2.4-2.4c0-1.3-1.1-2.4-2.4-2.4c-1.3,0-2.4,1.1-2.4,2.4C41.8,40.6,42.9,41.7,44.2,41.7z M53.7,18.9v30.3
		c0,1.1-0.9,1.9-1.9,1.9H6.4c-1.1,0-1.9-0.9-1.9-1.9V18.9c0-1.1,0.9-1.9,1.9-1.9h18L12.6,5.2c-0.8-0.7-0.8-2,0-2.7
		c0.7-0.8,2-0.8,2.7,0l13.8,13.7L42.9,2.5c0.8-0.7,2-0.7,2.7,0c0.7,0.8,0.7,2,0,2.7L33.8,17h18C52.9,17,53.7,17.8,53.7,18.9z
		 M8.3,47.2h26.4V20.8H8.3V47.2z M49.9,20.8H38.6v26.4h11.3C49.9,47.2,49.9,20.8,49.9,20.8z"/>
</g>
<g>
	<path class="st1" d="M76,19v4.6h-3.5V40h-6.8V23.5h-3.5V19H76z"/>
	<path class="st1" d="M93.2,19L88.7,40h-8.1L76.1,19h6.6l1.9,11.4l2-11.4H93.2z"/>
	<path class="st1" d="M93.2,25.5c0-0.9,0.2-1.7,0.6-2.6c0.3-0.8,0.9-1.5,1.5-2.2c0.7-0.6,1.5-1.2,2.5-1.5c1-0.4,2.1-0.6,3.3-0.6
		c2.3,0,4,0.5,5.3,1.5s1.8,2.4,1.8,4.3c0,0.4,0,0.8-0.1,1.2h-5.2v-0.1c0-0.1,0-0.1,0-0.1c0-0.1,0-0.1,0-0.2c0-0.2,0-0.3-0.1-0.6
		c0-0.2-0.1-0.4-0.2-0.6c-0.1-0.2-0.2-0.3-0.4-0.5c-0.1-0.1-0.4-0.2-0.6-0.2c-0.3,0-0.6,0.1-0.8,0.4s-0.3,0.6-0.3,1
		c0,0.6,0.2,1,0.6,1.3s0.9,0.6,1.5,0.8c0.6,0.2,1.2,0.5,2,0.7c0.7,0.3,1.4,0.6,2,1.1c0.6,0.5,1.1,1.1,1.5,1.9
		c0.4,0.8,0.6,1.8,0.6,3.1c0,0.8-0.1,1.6-0.4,2.4c-0.3,0.8-0.7,1.5-1.3,2.2c-0.6,0.6-1.5,1.2-2.4,1.6c-1,0.4-2.3,0.6-3.8,0.6
		c-1.4,0-2.6-0.1-3.5-0.5s-1.7-0.8-2.3-1.3c-0.6-0.6-1-1.2-1.2-1.9c-0.3-0.8-0.4-1.5-0.4-2.3c0-0.2,0-0.4,0-0.6c0-0.2,0-0.4,0.1-0.6
		H99c0,0.1-0.1,0.2-0.1,0.3s0,0.2,0,0.3c0,0.5,0.1,0.9,0.3,1.2s0.6,0.5,1,0.5c0.4,0,0.7-0.1,0.9-0.4c0.2-0.3,0.3-0.6,0.3-1
		c0-0.6-0.2-1-0.6-1.2c-0.4-0.3-0.9-0.6-1.5-0.8c-0.6-0.2-1.2-0.5-1.9-0.7s-1.3-0.6-1.9-1c-0.6-0.4-1.1-1-1.5-1.8
		C93.4,27.7,93.2,26.8,93.2,25.5z"/>
	<path class="st1" d="M110.1,40V19h6.8v8.5h2V19h6.8V40h-6.8v-7.9h-2v7.9L110.1,40L110.1,40z"/>
	<path class="st1" d="M127.5,25.7c0-0.9,0.1-1.8,0.5-2.6c0.3-0.8,0.8-1.6,1.5-2.2c0.6-0.6,1.5-1.1,2.5-1.5c1-0.3,2.2-0.6,3.7-0.6
		c1.4,0,2.6,0.2,3.7,0.6c1,0.3,1.9,0.9,2.5,1.5c0.6,0.6,1.1,1.4,1.5,2.2c0.3,0.8,0.5,1.7,0.5,2.6v7.8c0,1-0.1,1.9-0.5,2.7
		c-0.3,0.8-0.8,1.6-1.5,2.1c-0.6,0.6-1.5,1.1-2.5,1.5c-1,0.3-2.2,0.6-3.7,0.6s-2.6-0.2-3.7-0.6c-1-0.3-1.8-0.8-2.5-1.5
		c-0.6-0.6-1.1-1.3-1.5-2.1c-0.3-0.8-0.5-1.7-0.5-2.7V25.7z M134.3,33.9c0,0.3,0.1,0.7,0.3,1c0.1,0.3,0.5,0.5,1,0.5s0.8-0.1,1-0.5
		c0.1-0.3,0.3-0.6,0.3-1v-8.6c0-0.3-0.1-0.7-0.3-1c-0.1-0.3-0.5-0.5-1-0.5s-0.8,0.1-1,0.5c-0.1,0.3-0.3,0.6-0.3,1V33.9z"/>
	<path class="st1" d="M167.8,19L164,40h-6.2l-1.9-10.2L153.9,40h-6.3L143.8,19h6.8l1.2,8.7l1.5-8.7h5l1.5,8.7L161,19H167.8z"/>
</g>
<g>
	<path class="st1" d="M65.3,43.4c0.1,0,0.3,0,0.5,0.1c0.1,0.1,0.3,0.1,0.4,0.3s0.2,0.2,0.3,0.4c0.1,0.1,0.1,0.3,0.1,0.5V48
		c0,0.1,0,0.3-0.1,0.5c-0.1,0.1-0.1,0.3-0.3,0.4c-0.1,0.1-0.2,0.2-0.4,0.3c-0.2,0.1-0.3,0.1-0.5,0.1h-3.2v-5.8H65.3z M64,44.8v3.1
		h0.4c0.1,0,0.1,0,0.2-0.1s0.1-0.1,0.1-0.2V45c0-0.1,0-0.1-0.1-0.2c-0.1-0.1-0.1-0.1-0.2-0.1L64,44.8L64,44.8z"/>
	<path class="st1" d="M73.3,45.3c0-0.3,0.1-0.5,0.1-0.8c0.1-0.2,0.2-0.4,0.4-0.6c0.2-0.2,0.4-0.3,0.7-0.4c0.3-0.1,0.6-0.1,1-0.1
		c0.4,0,0.7,0.1,1,0.1c0.3,0.1,0.5,0.3,0.7,0.4c0.2,0.1,0.3,0.3,0.4,0.6c0.1,0.2,0.1,0.5,0.1,0.7v2.1c0,0.3-0.1,0.5-0.1,0.8
		c-0.1,0.2-0.2,0.4-0.4,0.6c-0.2,0.2-0.4,0.3-0.7,0.4c-0.3,0.1-0.6,0.1-1,0.1c-0.4,0-0.8-0.1-1-0.1s-0.5-0.2-0.7-0.4
		s-0.3-0.3-0.4-0.6c-0.1-0.2-0.1-0.5-0.1-0.8V45.3z M75.2,47.6c0,0.1,0,0.2,0.1,0.3s0.1,0.1,0.3,0.1s0.2-0.1,0.3-0.1
		c0.1-0.1,0.1-0.2,0.1-0.3v-2.3c0-0.1,0-0.2-0.1-0.3c-0.1-0.1-0.1-0.1-0.3-0.1s-0.2,0.1-0.3,0.1s-0.1,0.2-0.1,0.3V47.6z"/>
	<path class="st1" d="M90.8,43.4l-1,5.8H88l-0.6-2.8l-0.6,2.8h-1.7l-1-5.8H86l0.3,2.4l0.4-2.4h1.4l0.4,2.4l0.3-2.4H90.8z"/>
	<path class="st1" d="M102.2,43.4v5.8h-2.3l-0.8-3.2v3.2h-1.7v-5.8h2.3l0.8,2.8v-2.8H102.2z"/>
	<path class="st1" d="M110.9,43.4V48h1.5v1.2h-3.4v-5.8H110.9z"/>
	<path class="st1" d="M119,45.3c0-0.3,0.1-0.5,0.1-0.8c0.1-0.2,0.2-0.4,0.4-0.6c0.2-0.2,0.4-0.3,0.7-0.4c0.3-0.1,0.6-0.1,1-0.1
		c0.4,0,0.7,0.1,1,0.1c0.3,0.1,0.5,0.3,0.7,0.4c0.2,0.1,0.3,0.3,0.4,0.6c0.1,0.2,0.1,0.5,0.1,0.7v2.1c0,0.3-0.1,0.5-0.1,0.8
		c-0.1,0.2-0.2,0.4-0.4,0.6c-0.2,0.2-0.4,0.3-0.7,0.4c-0.3,0.1-0.6,0.1-1,0.1c-0.4,0-0.8-0.1-1-0.1c-0.3-0.1-0.5-0.2-0.7-0.4
		s-0.3-0.3-0.4-0.6c-0.1-0.2-0.1-0.5-0.1-0.8V45.3z M120.8,47.6c0,0.1,0,0.2,0.1,0.3s0.1,0.1,0.3,0.1c0.1,0,0.2-0.1,0.3-0.1
		c0.1-0.1,0.1-0.2,0.1-0.3v-2.3c0-0.1,0-0.2-0.1-0.3c-0.1-0.1-0.1-0.1-0.3-0.1c-0.1,0-0.2,0.1-0.3,0.1c-0.1,0.1-0.1,0.2-0.1,0.3
		V47.6z"/>
	<path class="st1" d="M133.5,43.4l1.4,5.8H133l-0.2-1.1h-1.1l-0.2,1.1h-1.9l1.4-5.8H133.5z M132.3,45.4l-0.3,1.6h0.6L132.3,45.4z"/>
	<path class="st1" d="M144.6,43.4c0.1,0,0.3,0,0.5,0.1c0.1,0.1,0.3,0.1,0.4,0.3s0.2,0.2,0.3,0.4c0.1,0.1,0.1,0.3,0.1,0.5V48
		c0,0.1,0,0.3-0.1,0.5s-0.1,0.3-0.3,0.4c-0.1,0.1-0.2,0.2-0.4,0.3c-0.2,0.1-0.3,0.1-0.5,0.1h-3.2v-5.8H144.6z M143.3,44.8v3.1h0.4
		c0.1,0,0.1,0,0.2-0.1s0.1-0.1,0.1-0.2V45c0-0.1,0-0.1-0.1-0.2c-0.1-0.1-0.1-0.1-0.2-0.1L143.3,44.8L143.3,44.8z"/>
	<path class="st1" d="M156.2,43.4v1.2h-1.6v1h1.6v1.2h-1.6V48h1.6v1.2h-3.5v-5.8H156.2z"/>
	<path class="st1" d="M166.1,43.4c0.2,0,0.3,0,0.6,0.1c0.1,0.1,0.3,0.1,0.4,0.3s0.2,0.2,0.3,0.4c0.1,0.1,0.1,0.3,0.1,0.5v0.7
		c0,0.2-0.1,0.5-0.2,0.6s-0.3,0.3-0.5,0.4c0.2,0.1,0.3,0.1,0.4,0.2c0.1,0.1,0.1,0.3,0.1,0.4v1.8c0,0.1,0,0.1,0.1,0.2
		s0.1,0.1,0.2,0.1l0,0h-1.8c-0.1,0-0.2,0-0.3-0.1s-0.1-0.1-0.1-0.2v-1.5c0-0.1,0-0.1-0.1-0.2c0-0.1-0.1-0.1-0.1-0.1h-0.3v2.2H163
		v-5.8H166.1z M164.8,44.7v1.1h0.4c0.1,0,0.1,0,0.1-0.1c0-0.1,0.1-0.1,0.1-0.2V45c0-0.1,0-0.1-0.1-0.2c0-0.1-0.1-0.1-0.1-0.1
		L164.8,44.7L164.8,44.7z"/>
</g>
</svg>
